<svg id="Capa_1" data-name="Capa 1" xmlns="http://www.w3.org/2000/svg" viewBox="0 0 755.28 800"><defs><style>.cls-1{fill:#303da1;}.cls-2{fill:#fcfcfc;}.cls-3{fill:#fff;}</style></defs><path class="cls-1" d="M701.67,733.37V40H97.85V733.37L399.77,579,701.7,733.37Z" transform="translate(-22.38 0)"/><path class="cls-2" d="M56.83,800V787.5q0-355.47.55-710.75c0-28.08-7.75-50.9-28.38-69.53C26.9,5.27,25.13,3,22.38,0H777.65c-3.72,3.9-6.65,7.17-9.8,10.15-17.65,16.9-25.37,37.2-25.35,62q.68,358.09.35,716V800l-343-171.45Zm41-760V733.37L399.77,579,701.7,733.37V40Z" transform="translate(-22.38 0)"/><path class="cls-3" d="M344.08,462a303.93,303.93,0,0,1-29.5-20.46v31.14l28.67,16.91v0h0c-4.53,29.53-3.83,30.69,22.89,32.84-.4-8.2-.64-16.22-1.21-24.23C363.84,482.76,358.66,470.54,344.08,462Z" transform="translate(-22.38 0)"/><path class="cls-3" d="M158.06,242.81c-18.9,19.11-24.93,53.14-13.94,76.12l11.49-17.7,3.53,1.08c2.08,12.28,4.73,24.51,6.16,36.87,2.82,23.91,3,47.14-23.14,60.75a135.19,135.19,0,0,0,24.71-3c43.93-10.46,63.57-43.92,52.36-87.59a74,74,0,0,1-2.1-25.32c1.33-13.45,8.84-18.94,21.93-19.34,0,24.73-.51,48.61.14,72.48.76,27.68-3.06,53.1-26.13,71.86a13.09,13.09,0,0,0-4.58,8.16c-2.05,31.4-4.46,62.81-5.2,94.26-.58,25.36,2.5,27.32,27.73,25.89.65,0,1.22-.78,2.64-1.71-1.2-3.59-1.48-8.25-3.92-11-9.53-10.79-7.89-23.44-6.87-36,.84-10.59,2.5-21.11,3.69-31.67,2.43-21.37,13.56-36.88,32.9-45.17,10.41-4.48,12-11.09,9.47-20.24-1.69-6.24-4.39-12.21-6.68-18.28-1.88-5-3.86-9.88-5.79-14.81l4.28-2c5.81,11.4,13.45,22.16,17,34.2,5.56,18.81-4.17,34.73-16.7,50.32l42.56,25.1V433.22c-2.27-1.7-4.57-3.41-6.9-5.1,2.41-2.27,4.69-4.59,6.9-6.94V227.92c-16.19.36-31.87,4-46.28,14.89C214.45,221.09,179.44,221.18,158.06,242.81Z" transform="translate(-22.38 0)"/><path class="cls-3" d="M437,228.56l41.77,4.28c-16.8,11.34-34.26,11.45-51.55,9.5-30.67-3.47-61.19-8.19-91.82-12.17-7-.91-13.91-1.68-20.79-2.06v180c21.09-27.89,30.56-60.41,30.85-96.9l4.89,1.14v42.07c6.09,2.28,12.33,5.78,18.91,6.82,33.22,5.26,66.5,10.29,99.87,14.35,7.24.89,11.55,2.13,12.35,9.69v.4l0-237.38A137.81,137.81,0,0,0,469,171.12C460.54,190.34,448.59,208,437,228.56Z" transform="translate(-22.38 0)"/><path class="cls-3" d="M626.33,99.5c-23-12.34-46.64-16.63-73.72-7.9l26,8.86c-1.81,2.28-2.95,2.72-4.08,2.72-34.14,0-61.62,10.11-82.11,31.61V537h25.27c-1.34-3.5-1.86-6.36-3.35-8.56-9.11-13.32-9.71-27.81-7.68-43.36q6.06-46.83,10.34-93.86c.54-6.35-2.38-13-3.73-19.68,10.67-.9,24-1.44,37.19-3.23s26.21-4.65,40.92-7.29c3.63,15.82,7.34,31.87,11.18,48.6l-26,4.39v32.06c10-5,20-7.68,26.78-14,7.18-6.76,14.31-16.38,15.9-25.73,3.1-17.93,1.93-36.55,3.17-54.85,1.36-19.95-10.75-31.57-30.34-28.5-9.27,1.44-18.63,2.24-30.16,3.58,10.68-23.93,10.92-46.23,9.41-68.84-.89-13-.4-26.18-1.51-39.2A21.84,21.84,0,0,0,564,205.7c-10.26-10-12-19.29-4.9-32.4,0,20.52,5.55,28.28,25.87,37.18,9.37,4,10.27,12.3,9.83,21.37-.21,4.41-.55,11.23,1.92,13,5.55,3.9,14.38,8.88,19,6.84,6.55-2.88,14.61-11.4,15.1-18,1.86-25.61,1-51.43,1.12-77.17,0-7.14-2.62-15.9.57-21,3.68-5.88,12.43-8.58,19.07-12.52a82,82,0,0,1,7.78-3.76l2-.91-2-1.16c-4.62-2.72-7.88-4.74-11.27-6.51C640.9,106.8,633.46,103.37,626.33,99.5Z" transform="translate(-22.38 0)"/></svg>