<svg id="Capa_1" data-name="Capa 1" xmlns="http://www.w3.org/2000/svg" viewBox="0 0 755.28 800"><defs><style>.cls-1{fill:#303da1;}.cls-2{fill:#fcfcfc;}.cls-3{fill:#fff;}</style></defs><path class="cls-1" d="M701.67,733.37V40H97.85V733.37L399.77,579,701.7,733.37Z" transform="translate(-22.38 0)"/><path class="cls-2" d="M56.83,800V787.5q0-355.47.55-710.75c0-28.08-7.75-50.9-28.38-69.53C26.9,5.27,25.13,3,22.38,0H777.65c-3.72,3.9-6.65,7.17-9.8,10.15-17.65,16.9-25.37,37.2-25.35,62q.68,358.09.35,716V800l-343-171.45Zm41-760V733.37L399.77,579,701.7,733.37V40Z" transform="translate(-22.38 0)"/><path class="cls-3" d="M543.93,153.17c-11-2.6-22-1.65-33-.28-9.65,1.19-19.38,3.06-29,2.82-29.43-.75-53.35-14.1-71.84-38.78a15.18,15.18,0,0,1-3.38-8.62,8.28,8.28,0,0,0-.78-3,7.21,7.21,0,0,0-9.91-3.46,8,8,0,0,0-4.15,8.32,6,6,0,0,1-2.37,5.87,201.73,201.73,0,0,1-27.67,21c-22.09,13.65-45.38,21.73-71.26,19.23-16.53-1.56-28.78,5.89-36.35,22a5.43,5.43,0,0,1-2.61,2.57,74.18,74.18,0,0,0-18.12,10.72c-9.66,7.48-20,13.6-31.58,16.86-20,5.63-38.58,3.33-55-11.39l0,0a7.16,7.16,0,0,0-10.45.93,8.71,8.71,0,0,0,.48,11.26,44.51,44.51,0,0,0,5.57,4.8c19.26,14.15,40.28,16.62,62.45,10.52,13.2-3.62,25.07-10.34,36.15-18.76,1.57-1.25,3.26-2.38,5.13-3.76a8.07,8.07,0,0,1,0,1.39c-3,11.9-5.63,23.92-9.06,35.67-8.56,29.39-25.51,51-51.94,63.52a8.47,8.47,0,0,0-4.57,11.16c1.78,4.33,6.24,5.92,10.75,3.75,24.63-11.87,43-30.77,54.32-57.36,6.17-14.47,9.74-29.76,13.48-45a255.23,255.23,0,0,1,7.9-27.52c4.27-11.61,12-16.14,23.47-15a106.89,106.89,0,0,0,38.9-3.31c20-5.48,38-15.52,54.84-28.14.5-.36,1-.66,1.55-1l.57.5c-3.59,7.81-7,15.74-10.84,23.38-9,17.78-20.41,33.47-35.62,45.56-8.48,6.74-17.47,12.74-26.22,19.09-10.92,7.92-21.95,15.85-31.35,25.73s-15.35,21.52-15.81,36a96.51,96.51,0,0,0,2.74,25,4.73,4.73,0,0,1-.86,4.37,86.24,86.24,0,0,1-23.27,21.43,120.47,120.47,0,0,1-32.4,13.94l-.27.07a8.19,8.19,0,0,0-5.5,9.94c0,.13.06.26.1.39a7.45,7.45,0,0,0,9.26,5.43c18.43-5.1,35.58-13,50.34-26.28,2.84-2.55,5.54-5.29,8.46-8.11.35,1.07.65,2,1,2.84,2.16,6.15,4.24,12.32,6.48,18.42,3.9,10.72,8.11,21.33,11.88,32.12a40.27,40.27,0,0,1-.92,29.26c-1.54,3.88-3.37,7.72-5.1,11.47-1.95,4.24-.76,9.12,2.8,11.26,3.81,2.28,8.13.89,10.51-3.44,1.08-2,2.05-4.08,3-6.17,3.92-8.68,6.84-17.69,7.13-27.52.27-9.08-1.82-17.65-4.87-26-3.89-10.57-8.11-21-12-31.58-5.48-15-10.57-30.11-12.95-46.14-1.9-13,.89-24.41,9.62-33.78a83.69,83.69,0,0,1,9.82-9.39c10-7.71,20.2-15.22,30.4-22.72,8.8-6.46,17.84-12.46,25.75-20.22,15.9-15.6,27.75-34.36,37-55.15,1-2.2,1.93-4.4,3-6.91.3.62.46.87.56,1.14,2.87,8.16,5.4,16.48,8.7,24.42,3.57,8.82,4.41,17.51,1.19,26.55-.31.9-.49,1.85-.82,2.74q-6.65,18-13.31,35.93c-6.22,16.76-12.05,33.63-14.43,51.64a3.52,3.52,0,0,1-1.9,2.16A36.57,36.57,0,0,0,363,309.71c-5,7.17-7.51,15.45-8.47,24.21-.77,7-1.47,14-4.11,20.61-2.21,5.5-5.14,10.32-10.78,12.41a1.85,1.85,0,0,0-1,1.35v15.39c1.88-.39,3.51-.57,5-1.05,9.77-3.11,15.94-10.45,20.08-20.1,3.56-8.33,5-17.24,5.84-26.27A33.84,33.84,0,0,1,373.86,322a71.61,71.61,0,0,1,4.84-6.5c1.58,5.55,2.71,10.56,4.52,15.56s4.13,9.75,6.35,14.56c3.88,8.44,7.93,16.83,11.88,25.27,13.64,29.2,16.49,59.45,7,90.65-2.94,9.73-6.75,19.13-10.31,28.64-.94,2.42-1.76,4.82-.94,7.42a7.85,7.85,0,0,0,4.21,5.06,7.38,7.38,0,0,0,9.9-4.08A224.62,224.62,0,0,0,424.25,462c7.05-27.42,6.86-54.58-2.45-81.45-4.8-13.87-11.33-26.81-17.56-39.93-1.73-3.64-3.28-7.37-5.11-10.94-5.47-10.74-5.82-22.17-4.22-33.91,1.75-12.93,5.68-25.2,10.06-37.29,5.16-14.18,10.52-28.25,15.71-42.4,1.25-3.38,2.17-6.9,3.23-10.34a43.85,43.85,0,0,1,15,9.6c10.53,10.08,16.53,23.07,19.35,37.61a258.09,258.09,0,0,0,23.14,67.84c9.31,18.39,20.25,35.51,34.79,49.61,8.38,8.06,17.45,14.73,28.56,17.51a33.09,33.09,0,0,0,25.11-3.26,8.51,8.51,0,0,0,3.45-11.09,2.72,2.72,0,0,0-.11-.25,7.24,7.24,0,0,0-10-3.35c-7.35,4.12-14.48,3.15-21.6-.51-9-4.61-16.27-11.74-22.88-19.62-14.66-17.5-25.4-37.63-34-59.21a14.11,14.11,0,0,1-.37-1.42,8.42,8.42,0,0,1,1.11.14c11.92,4,24.12,4.47,36.38,2.9s24.59-1.9,36.82.82c14.14,3.12,25.27,10.41,30.7,25.73a1.43,1.43,0,0,0,.08.22,7.21,7.21,0,0,0,9.55,4.24,8.3,8.3,0,0,0,4.39-10.46,51.76,51.76,0,0,0-8.43-16c-8.73-11.23-20.36-16.84-33.34-19.71-14.09-3.13-28.34-2.83-42.59-1a66,66,0,0,1-39.3-6.69,5.6,5.6,0,0,1-3.19-4.16c-1.95-8.63-3.58-17.4-6.17-25.81-7.35-23.86-21.08-41.5-43.64-50.13a3.48,3.48,0,0,1-1.63-2.11c-1.22-4.19-2.06-8.54-3.49-12.64-2-5.78-4.53-11.33-6.51-17.11-1.61-4.72-2.74-9.65-4.08-14.48a2.76,2.76,0,0,1,1.72.78,115.19,115.19,0,0,0,34.07,21.5,90.3,90.3,0,0,0,36,6.9c7-.1,14.06-1.17,21.09-1.72a3.74,3.74,0,0,1,2.48.53c10.27,8,18.7,17.76,23.53,30.7,3.59,9.66,7.18,19.33,12.37,28.19C547.75,239,555.16,245.24,565,248c8.9,2.5,18,3.29,27.15,3.75a7.29,7.29,0,0,0,7.12-5.74,8,8,0,0,0-7.12-10.55c-5.48-.54-10.95-1-16.43-1.56-10.89-1.13-18.84-6.85-23.38-17.71-2.72-6.49-5.51-13-7.89-19.61a82.17,82.17,0,0,0-16.25-27c-.36-.41-.66-.89-1.28-1.75,2.94.15,5.38.21,7.82.41,8.54.72,16.35,4.06,24,7.81,14.57,7.24,29,14.85,43.59,22,12,5.89,24.35,10.74,37.65,12A36.37,36.37,0,0,0,661.18,206a8.47,8.47,0,0,0,3.43-11.05l0,0a7.23,7.23,0,0,0-9.9-3.61,25.62,25.62,0,0,1-15,2.3A83.43,83.43,0,0,1,613,185.13c-14.32-7-28.57-14.34-42.82-21.52C561.74,159.34,553.12,155.35,543.93,153.17Z" transform="translate(-22.38 0)"/></svg>