<svg id="Capa_1" data-name="Capa 1" xmlns="http://www.w3.org/2000/svg" viewBox="0 0 755.28 800"><defs><style>.cls-1{fill:#303da1;}.cls-2{fill:#fcfcfc;}.cls-3{fill:#fff;}</style></defs><path class="cls-1" d="M701.67,733.37V40H97.85V733.37L399.77,579,701.7,733.37Z" transform="translate(-22.38 0)"/><path class="cls-2" d="M56.83,800V787.5q0-355.47.55-710.75c0-28.08-7.75-50.9-28.38-69.53C26.9,5.27,25.13,3,22.38,0H777.65c-3.72,3.9-6.65,7.17-9.8,10.15-17.65,16.9-25.37,37.2-25.35,62q.68,358.09.35,716V800l-343-171.45Zm41-760V733.37L399.77,579,701.7,733.37V40Z" transform="translate(-22.38 0)"/><path class="cls-3" d="M336.75,519.38c-1.58,4.46-.18,7.36,3.8,9,5.87,2.36,11.7,5.22,17.82,6.77,22,5.62,44.56,6,66.9,2.83,11.62-1.63,22.88-6.17,34.21-9.7,4-1.25,5.43-4.43,3.75-8.76C421,528.54,378.89,529,336.75,519.38Z" transform="translate(-22.38 0)"/><path class="cls-3" d="M456.81,75.36c-16.53-9.47-96.67-7.68-111.94.84A423.35,423.35,0,0,0,456.81,75.36Z" transform="translate(-22.38 0)"/><path class="cls-3" d="M494.17,272.93c-20.08-10-35.08-26.14-41.58-49a133.55,133.55,0,0,1-4.41-51.06c1.84-16.52,6.33-32.8,10.42-49,2.87-11.17,6.95-22,10.75-33.89-46.41,6.87-92.15,7.8-138.74.53.94,2.94,1.62,5,2.26,7,4.46,14.4,9,28.8,13.36,43.23,7.06,23.14,7.16,46.74,3.85,70.47C345.8,242,327.56,262,301.69,275.42c-13,6.71-22.62,16.61-27.4,30.22-4.5,12.75-8.58,26.18-9.66,39.59-4.08,50.72,11.86,95,44.45,133,12.31,14.36,25.86,26.1,45.61,28.64a360.42,360.42,0,0,0,85.09.69c19.36-2.08,34.91-10,47.26-25.21,2.69-3.28,5.75-6.26,8.36-9.6,33-42.27,47.31-89.92,37.61-143.82C528.63,304.44,517.64,284.59,494.17,272.93Z" transform="translate(-22.38 0)"/></svg>