<svg id="Capa_1" data-name="Capa 1" xmlns="http://www.w3.org/2000/svg" viewBox="0 0 755.28 800"><defs><style>.cls-1{fill:#303da1;}.cls-2{fill:#fcfcfc;}.cls-3{fill:#fff;}</style></defs><path class="cls-1" d="M701.67,733.37V40H97.85V733.37L399.77,579,701.7,733.37Z" transform="translate(-22.38 0)"/><path class="cls-2" d="M56.83,800V787.5q0-355.47.55-710.75c0-28.08-7.75-50.9-28.38-69.53C26.9,5.27,25.13,3,22.38,0H777.65c-3.72,3.9-6.65,7.17-9.8,10.15-17.65,16.9-25.37,37.2-25.35,62q.68,358.09.35,716V800l-343-171.45Zm41-760V733.37L399.77,579,701.7,733.37V40Z" transform="translate(-22.38 0)"/><path class="cls-3" d="M554.2,112.28c-32,9.26-63.5,20.26-99.26,32l23.16-28.39c-6.48-1.35-10.85-.21-12.9,2.73-21.7,31.06-53.72,42.36-86.91,52.33-24.63,7.35-48.74,16.73-73.19,24.94-25.9,8.65-52.16,16.19-77.7,25.89-5.65,2.13-13.21,11.94-12.48,17,2.08,14.31,7.43,28.26,12.63,41.86,4.67,12.23,13,18.8,26.5,13.86,13.79-5,27.74-9.61,43.47-15-1.94,23.9-3.83,47.1-5.71,70.3l5.62-8,70.21,77.15,61.72-4.69c-31.24,47-25.08,67.41,21.43,82.94,7.1,2.38,14.4,4.15,24.07,6.9,4.77-15.83,8.74-30.48,13.58-44.74,11.29-32.84,26.63-64.72,33.57-98.5,9.38-45.48,17-90.11,53.66-121.7,3.37-2.88,5.36-7.54,8-11.37l-3.39-3.45L552.66,249.8c11.53-38.64,22.28-71.88,31-105.7,2.42-9.29,2.06-23.17-3-29.69C576.63,109.32,562.62,109.86,554.2,112.28ZM406.64,240c-10.29,12.66-22.75,23.38-34.38,34.83l-6.43-6.77c7.89-13.7,15.15-27.77,24.07-40.67,2.81-4,10-4.69,15.26-6.88C405.83,227.12,409.47,236.5,406.64,240Zm68.62,76.21c-12.61,9.64-26.47,17.5-39.87,26l-5.68-6.56c11.3-12.59,22-25.87,34.33-37.27,2.92-2.71,11.07.9,16.86,1.6C479.12,305.58,478.93,313.44,475.26,316.23Zm10.13-82c-4.31,2.71-11.56.36-17.42.36.11-6.23-1.9-13.8.69-18.49,22.62-41.3,54.84-71,101.78-89.52C552.9,176.25,524,209.76,485.39,234.24Z" transform="translate(-22.38 0)"/></svg>