<svg id="Capa_1" data-name="Capa 1" xmlns="http://www.w3.org/2000/svg" viewBox="0 0 755.28 800"><defs><style>.cls-1{fill:#303da1;}.cls-2{fill:#fcfcfc;}.cls-3{fill:#fff;}</style></defs><path class="cls-1" d="M701.67,733.37V40H97.85V733.37L399.77,579,701.7,733.37Z" transform="translate(-22.38 0)"/><path class="cls-2" d="M56.83,800V787.5q0-355.47.55-710.75c0-28.08-7.75-50.9-28.38-69.53C26.9,5.27,25.13,3,22.38,0H777.65c-3.72,3.9-6.65,7.17-9.8,10.15-17.65,16.9-25.37,37.2-25.35,62q.68,358.09.35,716V800l-343-171.45Zm41-760V733.37L399.77,579,701.7,733.37V40Z" transform="translate(-22.38 0)"/><path class="cls-3" d="M554.87,388.23H244.72c-3.37-11.83-6.85-23.75-10.15-35.73C227.75,328,220.92,303.68,214.7,279a39.28,39.28,0,0,1-1-9v-.12h0v-.13a41.21,41.21,0,0,1,1-9l0,.27-.05.27c2.55-12.55,6.25-24.87,10.15-39.85l27.93,46c-2.28,3.72-4.48,7.15-6.5,10.67-6.55,11.4-2.5,23.83,9.8,28.68,20.52,8.1,41.87,6.77,63.2,4.42a138.43,138.43,0,0,0,25.07-5.35l-1,.28-1,.25c22.4-6.52,32.86-25.27,25.78-47.65-3.2-10.15-8.77-19.53-13.82-30.52l45.65-82.3,44.9,81.09c-5.38,14.23-11.8,26-14.08,38.63-3.75,20.32,6.25,34.82,26,40.55a160.17,160.17,0,0,0,46.47,6.72h.55a169.17,169.17,0,0,0,31.4-2.92l-1,.17-1,.15c21.1-3.67,31.45-20.12,16.7-38.35a38.85,38.85,0,0,1-2.42-4l-.1-.23-.1-.22c8.77-14.5,17.55-29.18,26.32-43.88h2.28c2.35,20.9,15.8,39.4,8,62.8-10.27,30.95-17.77,62.85-26.47,94.35-.73,2.53-1.58,5-2.4,7.55Z" transform="translate(-22.38 0)"/><path class="cls-3" d="M555,404.13v22.45H245.1V404.13Z" transform="translate(-22.38 0)"/><path class="cls-3" d="M147.92,426.57V404.08h50.33v22.49Z" transform="translate(-22.38 0)"/><path class="cls-3" d="M651.53,426.82H601.45V404.17h50.08Z" transform="translate(-22.38 0)"/></svg>