<svg id="Capa_1" data-name="Capa 1" xmlns="http://www.w3.org/2000/svg" viewBox="0 0 755.28 800"><defs><style>.cls-1{fill:#303da1;}.cls-2{fill:#fcfcfc;}.cls-3{fill:#fff;}</style></defs><path class="cls-1" d="M701.67,733.37V40H97.85V733.37L399.77,579,701.7,733.37Z" transform="translate(-22.38 0)"/><path class="cls-2" d="M56.83,800V787.5q0-355.47.55-710.75c0-28.08-7.75-50.9-28.38-69.53C26.9,5.27,25.13,3,22.38,0H777.65c-3.72,3.9-6.65,7.17-9.8,10.15-17.65,16.9-25.37,37.2-25.35,62q.68,358.09.35,716V800l-343-171.45Zm41-760V733.37L399.77,579,701.7,733.37V40Z" transform="translate(-22.38 0)"/><path class="cls-3" d="M601.56,480.41c-6.71-3.58-13.52-7-20.11-10.76Q501,423.32,420.59,376.84c-3.31-1.91-6.46-4.21-10-5.68-5.14-2.17-6.13-5.74-6.12-11q.24-134.68.1-269.38v-3.3l.77-.2c.67,1.24,1.38,2.45,2,3.71q96.09,192.17,192.16,384.34c.81,1.62,1.38,3.36,2.06,5Z" transform="translate(-22.38 0)"/><path class="cls-3" d="M198.39,480.14c.72-1.85,1.28-3.77,2.16-5.53q95.49-191,191-382a11.67,11.67,0,0,1,3.07-4.13v4.18q0,134.91.08,269.83c0,4.29-1.51,6.44-5.08,8.49q-73.58,42.26-147,84.77c-14.55,8.38-29.2,16.57-43.8,24.85Z" transform="translate(-22.38 0)"/><path class="cls-3" d="M210.64,486.43c16.91-10,33.74-20.08,50.73-29.93q62.2-36.06,124.51-71.94a18.63,18.63,0,0,0,3-1.79c7.64-6.62,14.34-4.7,22.62.19C455,408.7,499.05,433.68,542.84,459c15.83,9.17,31.49,18.66,47.22,28-2.56.78-5.12,2.25-7.68,2.25q-182.64.17-365.3.09c-1.33,0-2.83.37-4-.12S211.46,487.41,210.64,486.43Z" transform="translate(-22.38 0)"/></svg>