<svg id="Capa_1" data-name="Capa 1" xmlns="http://www.w3.org/2000/svg" viewBox="0 0 755.28 800"><defs><style>.cls-1{fill:#303da1;}.cls-2{fill:#fcfcfc;}.cls-3{fill:#fff;}</style></defs><path class="cls-1" d="M701.67,733.37V40H97.85V733.37L399.77,579,701.7,733.37Z" transform="translate(-22.38 0)"/><path class="cls-2" d="M56.83,800V787.5q0-355.47.55-710.75c0-28.08-7.75-50.9-28.38-69.53C26.9,5.27,25.13,3,22.38,0H777.65c-3.72,3.9-6.65,7.17-9.8,10.15-17.65,16.9-25.37,37.2-25.35,62q.68,358.09.35,716V800l-343-171.45Zm41-760V733.37L399.77,579,701.7,733.37V40Z" transform="translate(-22.38 0)"/><path class="cls-3" d="M399.54,496c73.82,0,137.37-47.2,165.71-115H233.83C262.18,448.76,325.68,496,399.54,496Z" transform="translate(-22.38 0)"/><path class="cls-3" d="M399.54,107.44c-73.9,0-137.36,47.21-165.71,115H565.25C536.91,154.65,473.4,107.44,399.54,107.44Z" transform="translate(-22.38 0)"/><path class="cls-3" d="M226.06,244.22a208.59,208.59,0,0,0,0,115H572.94a208.59,208.59,0,0,0,0-115Z" transform="translate(-22.38 0)"/></svg>