<svg id="Capa_1" data-name="Capa 1" xmlns="http://www.w3.org/2000/svg" viewBox="0 0 755.28 800"><defs><style>.cls-1{fill:#303da1;}.cls-2{fill:#fcfcfc;}.cls-3{fill:#fff;}</style></defs><path class="cls-1" d="M701.67,733.37V40H97.85V733.37L399.77,579,701.7,733.37Z" transform="translate(-22.38 0)"/><path class="cls-2" d="M56.83,800V787.5q0-355.47.55-710.75c0-28.08-7.75-50.9-28.38-69.53C26.9,5.27,25.13,3,22.38,0H777.65c-3.72,3.9-6.65,7.17-9.8,10.15-17.65,16.9-25.37,37.2-25.35,62q.68,358.09.35,716V800l-343-171.45Zm41-760V733.37L399.77,579,701.7,733.37V40Z" transform="translate(-22.38 0)"/><polygon class="cls-3" points="457.62 244.83 298.24 244.83 232.75 358.58 523.21 358.58 457.62 244.83"/><polygon class="cls-3" points="378.45 107.44 377.51 107.44 311.93 221.18 444.04 221.18 378.45 107.44"/><polygon class="cls-3" points="536.84 382.23 219.01 382.23 153.5 495.84 153.5 495.96 601.75 495.96 601.75 494.79 536.84 382.23"/></svg>