<svg id="Capa_1" data-name="Capa 1" xmlns="http://www.w3.org/2000/svg" viewBox="0 0 755.28 800"><defs><style>.cls-1{fill:#303da1;}.cls-2{fill:#fcfcfc;}.cls-3{fill:#fff;}</style></defs><path class="cls-1" d="M701.67,733.37V40H97.85V733.37L399.77,579,701.7,733.37Z" transform="translate(-22.38 0)"/><path class="cls-2" d="M56.83,800V787.5q0-355.47.55-710.75c0-28.08-7.75-50.9-28.38-69.53C26.9,5.27,25.13,3,22.38,0H777.65c-3.72,3.9-6.65,7.17-9.8,10.15-17.65,16.9-25.37,37.2-25.35,62q.68,358.09.35,716V800l-343-171.45Zm41-760V733.37L399.77,579,701.7,733.37V40Z" transform="translate(-22.38 0)"/><path class="cls-3" d="M334.28,326.37c8.82,1.66,16.47-3.57,18.37-13.22,1.76-8.91,2.28-18.1,3.34-27.1l-.44-.07c0-6.2.58-12.46-.12-18.58-1.61-14.25-7.54-21.34-16.54-20.77-8.41.54-12.75,7.65-13,22.1-.22,13.45.1,27-.22,40.45C325.5,316.64,324.14,324.47,334.28,326.37Z" transform="translate(-22.38 0)"/><path class="cls-3" d="M385.07,300.4c5.9-.53,12.83-2.95,16.83-7.11,3.17-3.31,3.45-10.22,3.52-15.55.32-25.64.14-51.32.14-77h1.77c0-22.73.26-45.47-.12-68.19a245.43,245.43,0,0,0-2.61-30.63C403.41,93.6,398,91.37,390,94c-10.76,3.48-11.64,11.9-11.64,21.13q-.12,49.52-.12,99h0c0,24.57-.32,49.15.36,73.63C378.76,292.25,383.22,300.57,385.07,300.4Z" transform="translate(-22.38 0)"/><path class="cls-3" d="M487.36,327.3c9.18,1.63,14.82-4.56,16.62-12.56,2.22-9.83,2.56-20.09,3.71-30.16l-.94-.17c-.57-8.74-.13-17.72-2.13-26.12-1-4.22-6.19-10-9.95-10.32-3.91-.38-9.63,4-12.23,7.9s-2.91,9.76-3.19,14.76c-.74,13.1-1,26.23-1.28,39.36C477.79,317.52,478,325.63,487.36,327.3Z" transform="translate(-22.38 0)"/><path class="cls-3" d="M438.1,304.36c11.73.91,16.69-3.13,16.91-17.39.54-35.53.18-71,.18-106.53h1.28c0-16.1.63-32.29-.46-48.29-.26-3.86-5.67-9.36-9.67-10.52-6.69-1.9-13.18,1.06-15.27,8.9a40.8,40.8,0,0,0-1,9.79q-1.12,76.37-2.36,152.71C427.59,300.36,431,303.81,438.1,304.36Z" transform="translate(-22.38 0)"/><path class="cls-3" d="M516.26,397c-12,.27-16.05-4.5-16.05-15.8a153.26,153.26,0,0,0-2.16-27.39c-1.74-9.8-6.35-10.48-14.09-4.63-8.45,6.39-9.89,15-10,24.33-.11,14.3,0,28.6,0,42.89h-.43c0,14.66.37,29.34-.1,44-.49,14.82-3.78,17.89-18.73,18-26.77.2-53.61,1.17-80.31-.27C341.3,476.34,307,458,299,416.22c-2.26-11.78-8.62-18.14-19.74-18.28-25.23-.3-50.47.44-75.7.82-8.54.16-13,4.92-12.74,13.16.33,8.76,6.59,11.45,14.4,11.76,15.09.58,30.09,2.14,45.09,1.63,15.77-.55,25.42,6.84,32.69,19.69,4.14,7.31,8.27,14.92,13.86,21.08,21.35,23.53,48.8,34.7,80.1,35.95,31.86,1.27,63.84.35,95.63,2.44,17.62,1.16,26.47-1.68,26.85-25.68.16-10.25-.51-20.52-.59-30.78-.13-16.76,2.58-20.18,23.79-22.18,15.69-1.48,31.51-1.61,47.28-2.09,8.42-.25,16-1.79,16.37-11.95s-6.51-13.1-15.09-13.41C552.87,397.72,534.54,396.57,516.26,397Z" transform="translate(-22.38 0)"/></svg>