<svg id="Capa_1" data-name="Capa 1" xmlns="http://www.w3.org/2000/svg" viewBox="0 0 755.28 800"><defs><style>.cls-1{fill:#303da1;}.cls-2{fill:#fcfcfc;}.cls-3{fill:#fff;}</style></defs><path class="cls-1" d="M701.67,733.37V40H97.85V733.37L399.77,579,701.7,733.37Z" transform="translate(-22.38 0)"/><path class="cls-2" d="M56.83,800V787.5q0-355.47.55-710.75c0-28.08-7.75-50.9-28.38-69.53C26.9,5.27,25.13,3,22.38,0H777.65c-3.72,3.9-6.65,7.17-9.8,10.15-17.65,16.9-25.37,37.2-25.35,62q.68,358.09.35,716V800l-343-171.45Zm41-760V733.37L399.77,579,701.7,733.37V40Z" transform="translate(-22.38 0)"/><path class="cls-3" d="M208.74,496V383.55H590.21l0,112.41Zm0-138V245.5H590.21l0,112.41Zm0-138V107.44H590.21l0,112.42Z" transform="translate(-22.38 0)"/></svg>