<svg id="Capa_1" data-name="Capa 1" xmlns="http://www.w3.org/2000/svg" viewBox="0 0 493 484"><defs><style>.cls-1{fill:#fff;}</style></defs><path class="cls-1" d="M250,8C113.86,8,3.5,116.35,3.5,250S113.86,492,250,492,496.5,383.65,496.5,250,386.14,8,250,8ZM182.36,326.36c-1.55,1.65-3.15,3.28-4.84,4.87,1.64,1.19,3.25,2.39,4.84,3.58v23.1L152.5,340.3c8.79-10.94,15.62-22.11,11.72-35.31-2.5-8.45-7.86-16-11.94-24l-3,1.39c1.35,3.46,2.74,6.91,4.06,10.39,1.61,4.26,3.5,8.45,4.69,12.83,1.75,6.42.66,11.06-6.65,14.2C137.81,325.62,130,336.5,128.3,351.5c-.84,7.41-2,14.79-2.59,22.22-.72,8.79-1.87,17.67,4.82,25.24,1.71,1.93,1.91,5.2,2.75,7.72-1,.65-1.4,1.17-1.85,1.2-17.71,1-19.87-.37-19.46-18.17.52-22.07,2.21-44.11,3.65-66.14a9.15,9.15,0,0,1,3.21-5.73c16.19-13.16,18.87-31,18.34-50.42-.46-16.75-.1-33.51-.1-50.86-9.19.28-14.46,4.13-15.39,13.57a52,52,0,0,0,1.47,17.77c7.87,30.64-5.91,54.12-36.74,61.46a94.7,94.7,0,0,1-17.34,2.09c18.33-9.55,18.22-25.85,16.24-42.63-1-8.67-2.86-17.25-4.32-25.87l-2.48-.76-8.06,12.42c-7.71-16.12-3.48-40,9.78-53.41,15-15.18,39.57-15.24,69.66,0C160,193.53,171,191,182.36,190.75Zm27.82,48-20.12-11.87V340.64A213.42,213.42,0,0,0,210.76,355c10.23,6,13.87,14.57,14.63,25.4.4,5.62.57,11.25.85,17C207.48,395.89,207,395.08,210.18,374.33Zm97-72.9,0-.28c-.56-5.31-3.58-6.18-8.66-6.8-23.42-2.85-46.77-6.38-70.08-10.07-4.62-.73-9-3.19-13.27-4.79V250l-3.43-.8c-.21,25.61-6.85,48.43-21.65,68V190.88c4.83.27,9.7.81,14.59,1.45,21.49,2.79,42.91,6.1,64.43,8.54,12.13,1.37,24.38,1.29,36.17-6.67l-29.31-3c8.13-14.43,16.51-26.82,22.44-40.31a96.87,96.87,0,0,1,8.8-16ZM426.55,117.08c-4.66,2.76-10.8,4.66-13.38,8.78-2.24,3.58-.38,9.73-.4,14.74-.09,18.06.52,36.18-.79,54.15-.34,4.65-6,10.63-10.59,12.65-3.27,1.43-9.47-2.06-13.36-4.8-1.74-1.21-1.5-6-1.35-9.09.31-6.37-.32-12.16-6.9-15-14.26-6.24-18.15-11.69-18.15-26.09-5,9.2-3.76,15.72,3.44,22.74a15.3,15.3,0,0,1,4.12,9c.78,9.14.44,18.36,1.06,27.51,1.06,15.86.89,31.51-6.6,48.3,8.09-.94,14.66-1.5,21.16-2.51,13.75-2.15,22.25,6,21.29,20-.87,12.84-.05,25.91-2.22,38.49-1.12,6.56-6.12,13.31-11.16,18.05-4.72,4.44-11.79,6.33-18.79,9.83V321.33l18.24-3.08c-2.7-11.74-5.3-23-7.85-34.1C374,286,364.85,288,355.61,289.26s-18.61,1.64-26.1,2.27c.95,4.67,3,9.35,2.62,13.81q-3,33-7.26,65.86c-1.42,10.91-1,21.08,5.39,30.43,1.05,1.54,1.41,3.55,2.35,6H314.88V125.4c14.38-15.09,33.66-22.17,57.62-22.18.79,0,1.59-.31,2.86-1.91l-18.27-6.22c19-6.12,35.59-3.11,51.73,5.55,5,2.71,10.22,5.12,15.28,7.78,2.38,1.24,4.67,2.66,7.91,4.57l1.38.81-1.38.64C429.64,115.53,428,116.2,426.55,117.08Z" transform="translate(-3.5 -8)"/></svg>