<svg id="Capa_1" data-name="Capa 1" xmlns="http://www.w3.org/2000/svg" viewBox="0 0 493 484"><defs><style>.cls-1{fill:#fff;}</style></defs><path class="cls-1" d="M442.18,401.17c-6.4-3.41-12.9-6.65-19.18-10.26q-76.77-44.21-153.45-88.53c-3.16-1.83-6.17-4-9.5-5.43-4.91-2.06-5.86-5.47-5.85-10.5q.24-128.47.1-257V26.34l.74-.19c.64,1.18,1.32,2.34,1.92,3.54Q348.63,213,440.26,396.32c.77,1.54,1.31,3.2,2,4.8l.21.11A238.22,238.22,0,0,0,496.5,250C496.5,116.35,386.14,8,250,8S3.5,116.35,3.5,250a238.27,238.27,0,0,0,54,151.19l.06-.28h0c.68-1.76,1.22-3.59,2.06-5.27Q150.73,213.4,241.85,31.2a11.15,11.15,0,0,1,2.93-3.93v4q0,128.7.08,257.4c0,4.09-1.44,6.14-4.85,8.09q-70.18,40.32-140.24,80.87c-13.88,8-27.85,15.81-41.78,23.7l-.21.17a249.36,249.36,0,0,0,384.56-.14l-.16-.17Zm-18.3,8.46q-174.22.17-348.46.09c-1.27,0-2.7.35-3.77-.12s-1.6-1.76-2.38-2.69c16.13-9.52,32.19-19.15,48.39-28.55Q177,344,236.43,309.74a18.49,18.49,0,0,0,2.86-1.71c7.29-6.31,13.68-4.48,21.58.18,41.54,24.56,83.52,48.38,125.29,72.57,15.1,8.75,30,17.79,45,26.7C428.76,408.23,426.32,409.63,423.88,409.63Z" transform="translate(-3.5 -8)"/></svg>