<svg id="Capa_1" data-name="Capa 1" xmlns="http://www.w3.org/2000/svg" viewBox="0 0 493 484"><defs><style>.cls-1{fill:#e3e2e1;}.cls-2{fill:#26aae1;}</style></defs><ellipse class="cls-1" cx="246.5" cy="242" rx="246.5" ry="242"/><path class="cls-2" d="M247.37,348.18V465.36L224.7,476.52l-78-117.46,61.67-61.67,39,50.79Z" transform="translate(-3.5 -8)"/><path class="cls-2" d="M152.33,253.31H34.6L23.44,275.08,141,353.81l61.22-61.5-49.89-39Z" transform="translate(-3.5 -8)"/><path class="cls-2" d="M247.37,152.27V34.64L224.7,23.48l-78,117.91,61.67,61.67,39-50.79Z" transform="translate(-3.5 -8)"/><path class="cls-2" d="M152.86,246.79H35L23.71,225l117.36-78.73,61.66,61.5-49.88,39Z" transform="translate(-3.5 -8)"/><path class="cls-2" d="M253,348.18V465.36l22.21,11.16,78.37-117.46L292,297.39Z" transform="translate(-3.5 -8)"/><path class="cls-2" d="M347.67,252.59H465.4l11.16,22.67L359,353.54l-61.22-62,49.89-39Z" transform="translate(-3.5 -8)"/><path class="cls-2" d="M253,152.27V34.64L275.2,23.48l78.37,117.91L292,203.06Z" transform="translate(-3.5 -8)"/><path class="cls-2" d="M347.14,247.51H465.05l11.24-22.67L358.93,146.56l-61.66,61.95,49.88,39Z" transform="translate(-3.5 -8)"/><path class="cls-2" d="M250.18,302.46a49.33,49.33,0,1,1,49.34-49.33h0a49.42,49.42,0,0,1-49.34,49.33Zm0-89.6a40.27,40.27,0,1,0,40.27,40.27h0a40.26,40.26,0,0,0-40.27-40.27Z" transform="translate(-3.5 -8)"/><path class="cls-2" d="M245.37,236.35v8.89l-7.17,7.08H229v-3.54l16.33-12.42Z" transform="translate(-3.5 -8)"/><path class="cls-2" d="M245.37,268.28v-8.89l-7.17-7.08H229v3.54Z" transform="translate(-3.5 -8)"/><path class="cls-2" d="M254.26,236.35v8.89l7.17,7.08h9.16v-3.54l-16.33-12.42Z" transform="translate(-3.5 -8)"/><path class="cls-2" d="M254.26,268.28v-8.89l7.17-7.08h9.16v3.54Z" transform="translate(-3.5 -8)"/><path class="cls-2" d="M254.26,253.21a4.45,4.45,0,1,1-4.44-4.44A4.44,4.44,0,0,1,254.26,253.21Z" transform="translate(-3.5 -8)"/></svg>