<svg id="Capa_1" data-name="Capa 1" xmlns="http://www.w3.org/2000/svg" viewBox="0 0 493 484"><defs><style>.cls-1{fill:#fff;}</style></defs><path class="cls-1" d="M250,8C113.86,8,3.5,116.35,3.5,250S113.86,492,250,492,496.5,383.65,496.5,250,386.14,8,250,8Zm89.41,253.16c.31-13.13.54-26.26,1.28-39.36.28-5,.59-10.85,3.19-14.76s8.32-8.28,12.23-7.9c3.76.37,8.94,6.1,9.95,10.32,2,8.4,1.56,17.38,2.13,26.12l.94.17c-1.15,10.07-1.49,20.33-3.71,30.16-1.8,8-7.44,14.19-16.62,12.56C339.43,276.8,339.23,268.69,339.41,261.16ZM291.51,91.49a41,41,0,0,1,1-9.79c2.09-7.84,8.58-10.8,15.27-8.9,4,1.16,9.41,6.66,9.67,10.52,1.09,16,.46,32.19.46,48.29h-1.28c0,35.51.36,71-.18,106.53-.22,14.26-5.18,18.3-16.91,17.39-7.08-.55-10.51-4-10.39-11.33Q290.39,167.85,291.51,91.49Zm-51.79,73.78q0-49.49.12-99c0-9.23.88-17.65,11.64-21.13,8-2.6,13.37-.37,14.56,7.95a243.71,243.71,0,0,1,2.61,30.63c.38,22.72.12,45.46.12,68.19H267c0,25.68.18,51.36-.14,77-.07,5.33-.35,12.24-3.52,15.55-4,4.16-10.93,6.58-16.83,7.11-1.85.17-6.31-8.15-6.43-12.67C239.4,214.42,239.7,189.84,239.72,165.27Zm-52.61,95.08c.32-13.47,0-27,.22-40.45.25-14.45,4.59-21.56,13-22.1,9-.57,14.93,6.52,16.54,20.77.7,6.12.12,12.38.12,18.58l.44.07c-1.06,9-1.58,18.19-3.34,27.1-1.9,9.65-9.55,14.88-18.37,13.22C185.58,275.64,186.94,267.81,187.11,260.35ZM431.33,374.91c-15.77.48-31.59.61-47.28,2.09-21.21,2-23.92,5.42-23.79,22.18.08,10.26.75,20.53.59,30.78-.38,24-9.23,26.84-26.85,25.68-31.79-2.09-63.77-1.17-95.63-2.44-31.3-1.25-58.75-12.42-80.1-35.95-5.59-6.16-9.72-13.77-13.86-21.08-7.27-12.85-16.92-20.24-32.69-19.69-15,.51-30-1.05-45.09-1.63-7.81-.31-14.07-3-14.4-11.76-.3-8.24,4.2-13,12.74-13.16,25.23-.38,50.47-1.12,75.7-.82,11.12.14,17.48,6.5,19.74,18.28,8,41.73,42.33,60.12,75.42,61.89,26.7,1.44,53.54.47,80.31.27,14.95-.11,18.24-3.18,18.73-18,.47-14.66.1-29.34.1-44h.43c0-14.29-.11-28.59,0-42.89.11-9.35,1.55-17.94,10-24.33,7.74-5.85,12.35-5.17,14.09,4.63a153,153,0,0,1,2.16,27.39c0,11.3,4.09,16.07,16.05,15.8,18.28-.41,36.61.74,54.91,1.4,8.58.31,15.54,3.39,15.09,13.41C447.3,373.12,439.75,374.66,431.33,374.91Z" transform="translate(-3.5 -8)"/></svg>