<svg id="Capa_1" data-name="Capa 1" xmlns="http://www.w3.org/2000/svg" viewBox="0 0 800 799.85"><defs><style>.cls-1{fill:#fff;opacity:0.8;}</style></defs><path class="cls-1" d="M395.35,573.35V780.22l-40,19.7L217.62,592.55,326.5,483.68l68.85,89.67Z" transform="translate(0 -0.07)"/><path class="cls-1" d="M227.55,405.85H19.7L0,444.27l207.52,139L315.6,474.7l-88.08-68.85Z" transform="translate(0 -0.07)"/><path class="cls-1" d="M395.35,227.45V19.77l-40-19.7L217.62,208.25,326.5,317.12l68.85-89.67Z" transform="translate(0 -0.07)"/><path class="cls-1" d="M228.5,394.32H20.33L.48,355.9l207.2-139L316.55,325.48l-88.07,68.85Z" transform="translate(0 -0.07)"/><path class="cls-1" d="M405.28,573.35V780.22l39.22,19.7L582.85,592.55,474.13,483.68Z" transform="translate(0 -0.07)"/><path class="cls-1" d="M572.45,404.58H780.3l19.7,40L592.48,582.8,484.4,473.43l88.08-68.85Z" transform="translate(0 -0.07)"/><path class="cls-1" d="M405.28,227.45V19.77L444.5.07,582.85,208.25,474.13,317.12Z" transform="translate(0 -0.07)"/><path class="cls-1" d="M571.5,395.6H779.68l19.85-40-207.2-138.2L483.45,326.75l88.08,68.85Z" transform="translate(0 -0.07)"/><path class="cls-1" d="M400.33,492.62a87.1,87.1,0,1,1,87.09-87.09h0a87.23,87.23,0,0,1-87.09,87.09Zm0-158.2a71.11,71.11,0,1,0,71.1,71.11h0a71.09,71.09,0,0,0-71.1-71.1h0Z" transform="translate(0 -0.07)"/><path class="cls-1" d="M391.83,375.9v15.7l-12.65,12.5H363v-6.25l28.83-21.92Z" transform="translate(0 -0.07)"/><path class="cls-1" d="M391.83,432.28v-15.7l-12.65-12.5H363v6.25Z" transform="translate(0 -0.07)"/><path class="cls-1" d="M407.53,375.9v15.7l12.65,12.5h16.17v-6.25l-28.82-21.92Z" transform="translate(0 -0.07)"/><path class="cls-1" d="M407.53,432.28v-15.7l12.65-12.5h16.17v6.25Z" transform="translate(0 -0.07)"/><path class="cls-1" d="M407.53,405.67a7.85,7.85,0,1,1-7.85-7.85A7.84,7.84,0,0,1,407.53,405.67Z" transform="translate(0 -0.07)"/></svg>