<svg id="Capa_1" data-name="Capa 1" xmlns="http://www.w3.org/2000/svg" viewBox="0 0 493 484"><defs><style>.cls-1{fill:#fff;}</style></defs><path class="cls-1" d="M250,8C113.86,8,3.5,116.35,3.5,250S113.86,492,250,492,496.5,383.65,496.5,250,386.14,8,250,8Zm47.54,55.56a364.53,364.53,0,0,1-93.7.68C216.62,57.31,283.71,55.85,297.54,63.56Zm2.24,368.56c-9.49,2.87-18.91,6.57-28.64,7.89-18.7,2.55-37.56,2.27-56-2.3-5.12-1.26-10-3.59-14.92-5.51-3.33-1.3-4.5-3.66-3.18-7.29,35.28,7.82,70.55,7.45,105.88.08C304.32,428.51,303.14,431.1,299.78,432.12ZM329.85,387c-2.19,2.72-4.75,5.14-7,7.81-10.34,12.35-23.36,18.83-39.56,20.52a310.22,310.22,0,0,1-71.23-.56c-16.53-2.07-27.88-11.62-38.18-23.31-27.28-31-40.63-67-37.21-108.28.9-10.91,4.32-21.84,8.09-32.22,4-11.07,12.07-19.13,22.93-24.59,21.66-10.91,36.93-27.18,40.51-52.2,2.77-19.31,2.69-38.52-3.22-57.35-3.69-11.74-7.45-23.46-11.19-35.18-.53-1.68-1.1-3.34-1.89-5.73,39,5.92,77.29,5.16,116.14-.43-3.18,9.66-6.6,18.49-9,27.58-3.42,13.17-7.18,26.42-8.72,39.86a105.67,105.67,0,0,0,3.69,41.55c5.44,18.6,18,31.73,34.81,39.87,19.64,9.49,28.84,25.65,32.51,45.62C369.45,313.82,357.5,352.6,329.85,387Z" transform="translate(-3.5 -8)"/></svg>