<svg id="Capa_1" data-name="Capa 1" xmlns="http://www.w3.org/2000/svg" viewBox="0 0 151.2 200.85"><defs><style>.cls-1{fill:#fff;}</style></defs><path class="cls-1" d="M301.64,225.57c6.77,1.25,18.29,6.71,21,10.62a16.45,16.45,0,0,1,2.94,9.69c-.19,23.47-.09,46.95-.09,70.42,0,6.28-.3,12.58.08,18.84.42,7.09-4,11.25-8.59,15.24-1.17,1-3.7.65-5.61.65q-25.29.06-50.58,0H189.37c-3.21,0-6.3.41-8.84-2.74-2.81-3.49-6.23-6.43-6-11.44,0-1,0-2,0-3,0-29.09.19-58.19-.12-87.28-.09-7.75,4-12,9.81-15.45,2.63-1.57,5.3-3.54,8.19-4.09,5.65-1.06,6.52-4.27,6.05-9.23a86.91,86.91,0,0,1,0-13.88c1-15.13,5.54-28.86,16.86-39.59,3.22-3.06,6.07-6.37,10.25-8.65,6.59-3.61,13.06-6.11,20.65-5.34a44.69,44.69,0,0,0,7.93,0c11.68-1,20.43,4.47,28.87,11.88,7.69,6.75,11.9,15.46,15.79,24.3,2.09,4.73,2.47,10.38,2.78,15.67C302,209.81,301.64,217.42,301.64,225.57ZM250,227.9c6.62,0,13.24.07,19.86,0,4.29-.06,5.86-1.52,5.92-5.68.12-7.94.06-15.89,0-23.83a8.89,8.89,0,0,0-.55-3.73c-6.09-12.67-13.36-20.32-25.76-18.39a8.2,8.2,0,0,1-2,0,16,16,0,0,0-13.06,4.51c-5,4.63-9.36,10-10.06,16.65-.89,8.51-.34,17.18-.15,25.78.06,2.81,1.73,4.72,4.92,4.72C236.1,227.89,243.05,227.9,250,227.9Z" transform="translate(-174.39 -150.25)"/></svg>