<svg id="Capa_1" data-name="Capa 1" xmlns="http://www.w3.org/2000/svg" viewBox="0 0 493 484"><defs><style>.cls-1{fill:#fff;}</style></defs><path class="cls-1" d="M250,8C113.86,8,3.5,116.35,3.5,250S113.86,492,250,492,496.5,383.65,496.5,250,386.14,8,250,8ZM85.59,351.44H44.52V328.91H85.59Zm291.08,0H123.82V329H376.67ZM400.15,211c-8.38,31-14.5,62.93-21.6,94.48-.6,2.53-1.29,5-2,7.56H123.51c-2.75-11.84-5.59-23.79-8.28-35.78-5.57-24.5-11.14-48.89-16.22-73.62a47.86,47.86,0,0,1-.83-9v-.25a50.3,50.3,0,0,1,.81-9l0,.27,0,.28C101,173.3,104,161,107.19,146L130,192c-1.85,3.73-3.65,7.16-5.3,10.69-5.35,11.41-2,23.86,8,28.71,16.75,8.11,34.18,6.79,51.58,4.43a96,96,0,0,0,20.46-5.35l-.8.27-.79.25c18.28-6.53,26.81-25.31,21-47.71-2.61-10.17-7.16-19.55-11.28-30.57l37.25-82.41,36.64,81.21c-4.38,14.24-9.63,26.06-11.48,38.68-3.06,20.35,5.1,34.87,21.23,40.6a108.44,108.44,0,0,0,37.93,6.74h.45a113.53,113.53,0,0,0,25.62-2.93l-.86.17-.83.15c17.22-3.68,25.66-20.15,13.63-38.4a38.82,38.82,0,0,1-2-4l-.08-.23-.09-.22c7.16-14.52,14.33-29.21,21.49-43.93h1.85C395.56,169,406.54,187.57,400.15,211Zm14.46,140.69V329h40.87v22.68Z" transform="translate(-3.5 -8)"/></svg>