<svg id="Capa_1" data-name="Capa 1" xmlns="http://www.w3.org/2000/svg" viewBox="0 0 493 484"><defs><style>.cls-1{fill:#fff;}</style></defs><path class="cls-1" d="M250,8C113.86,8,3.5,116.35,3.5,250S113.86,492,250,492,496.5,383.65,496.5,250,386.14,8,250,8ZM388.59,121c-7.45,28.84-16.62,57.19-26.45,90.14l23.54-21.72,2.89,2.94c-2.24,3.27-3.94,7.24-6.81,9.7C350.5,229,344,267.06,336,305.84c-5.92,28.81-19,56-28.63,84C303.24,402,299.86,414.5,295.79,428c-8.25-2.35-14.47-3.86-20.53-5.89-39.66-13.24-44.91-30.67-18.27-70.73l-52.64,4-59.87-65.79-4.79,6.81c1.6-19.78,3.21-39.57,4.87-59.95-13.42,4.62-25.31,8.51-37.07,12.81-11.52,4.21-18.62-1.39-22.6-11.82-4.44-11.6-9-23.49-10.77-35.7-.63-4.33,5.82-12.69,10.64-14.51,21.78-8.27,44.17-14.7,66.26-22.08,20.85-7,41.41-15,62.42-21.27,28.3-8.5,55.61-18.14,74.11-44.62,1.75-2.51,5.48-3.48,11-2.33L278.8,121.14c30.5-10,57.38-19.38,84.65-27.27,7.18-2.07,19.13-2.53,22.54,1.81C390.35,101.24,390.65,113.08,388.59,121Z" transform="translate(-3.5 -8)"/><path class="cls-1" d="M290.5,182.41c-2.21,4-.49,10.46-.59,15.77,5,0,11.18,2,14.86-.31,32.94-20.87,57.57-49.45,72.53-91.8C337.27,121.83,309.79,147.19,290.5,182.41Z" transform="translate(-3.5 -8)"/><path class="cls-1" d="M223.34,192.05c-7.61,11-13.8,23-20.53,34.68l5.48,5.77c9.92-9.76,20.55-18.9,29.32-29.7,2.42-3-.69-11-1.26-16.62C231.9,188.05,225.73,188.59,223.34,192.05Z" transform="translate(-3.5 -8)"/><path class="cls-1" d="M286.56,252.63c-10.49,9.72-19.64,21.05-29.27,31.78l4.84,5.6c11.43-7.29,23.25-14,34-22.22,3.13-2.38,3.29-9.08,4.81-13.8C296,253.4,289.05,250.32,286.56,252.63Z" transform="translate(-3.5 -8)"/></svg>