<svg id="Capa_1" data-name="Capa 1" xmlns="http://www.w3.org/2000/svg" viewBox="0 0 493 484"><defs><style>.cls-1{fill:#fff;}</style></defs><path class="cls-1" d="M250,8C113.86,8,3.5,116.35,3.5,250S113.86,492,250,492,496.5,383.65,496.5,250,386.14,8,250,8ZM470,173.08a32,32,0,0,1-17.86,3.25c-11.2-1-21.6-4.88-31.7-9.59-12.3-5.72-24.44-11.8-36.71-17.59-6.42-3-13-5.67-20.19-6.24-2.05-.16-4.11-.21-6.58-.33.52.69.77,1.07,1.07,1.4a65.17,65.17,0,0,1,13.69,21.61c2,5.3,4.35,10.49,6.64,15.68,3.82,8.68,10.52,13.25,19.69,14.15,4.61.45,9.22.82,13.83,1.25s7.27,4.28,6,8.43a6.08,6.08,0,0,1-6,4.59c-7.69-.37-15.36-1-22.86-3-8.29-2.21-14.53-7.17-19.08-14.54-4.37-7.08-7.39-14.81-10.42-22.53-4.06-10.34-11.16-18.1-19.81-24.54a3.29,3.29,0,0,0-2.09-.42c-5.92.44-11.84,1.29-17.76,1.37a79.44,79.44,0,0,1-30.31-5.51,97.87,97.87,0,0,1-28.69-17.19,2.39,2.39,0,0,0-1.45-.62c1.13,3.86,2.08,7.8,3.44,11.57,1.66,4.62,3.81,9.06,5.48,13.68,1.2,3.28,1.91,6.75,2.94,10.1a2.8,2.8,0,0,0,1.37,1.69c19,6.9,30.56,21,36.75,40.07,2.18,6.72,3.55,13.73,5.19,20.63a4.51,4.51,0,0,0,2.69,3.32,58.21,58.21,0,0,0,33.09,5.35c12-1.46,24-1.7,35.87.8,10.93,2.29,20.72,6.78,28.07,15.75a40.86,40.86,0,0,1,7.1,12.79,6.52,6.52,0,0,1-3.7,8.36,6.17,6.17,0,0,1-8.11-3.56c-4.57-12.25-13.94-18.07-25.85-20.57-10.3-2.17-20.67-1.9-31-.65s-20.6.85-30.64-2.32a6.21,6.21,0,0,0-.93-.11,11.44,11.44,0,0,0,.31,1.13c7.21,17.25,16.25,33.34,28.6,47.33,5.56,6.3,11.66,12,19.26,15.68,6,2.93,12,3.7,18.19.41a6.24,6.24,0,0,1,8.51,2.88,6.63,6.63,0,0,1-2.91,8.86,29.18,29.18,0,0,1-21.14,2.61c-9.36-2.23-17-7.56-24.05-14-12.25-11.27-21.46-24.95-29.3-39.65a199.18,199.18,0,0,1-19.48-54.23c-2.38-11.62-7.43-22-16.3-30.06a37.14,37.14,0,0,0-12.65-7.67c-.9,2.75-1.67,5.56-2.72,8.26-4.37,11.31-8.89,22.56-13.23,33.89-3.69,9.67-7,19.47-8.47,29.81-1.35,9.38-1.06,18.52,3.55,27.1,1.54,2.86,2.85,5.84,4.3,8.75,5.25,10.48,10.75,20.83,14.79,31.91,7.84,21.48,8,43.19,2.06,65.11a173.71,173.71,0,0,1-10.9,29.2,6.33,6.33,0,0,1-11.88-.78c-.69-2.08,0-4,.79-5.93,3-7.6,6.2-15.12,8.68-22.89,8-24.94,5.6-49.12-5.89-72.46-3.32-6.75-6.73-13.45-10-20.2-1.87-3.84-3.83-7.65-5.35-11.64s-2.47-8-3.8-12.43a57.14,57.14,0,0,0-4.08,5.19,26.07,26.07,0,0,0-3.54,11.44c-.74,7.22-1.92,14.34-4.92,21-3.49,7.71-8.68,13.58-16.91,16.06-1.29.39-2.66.53-4.24.84,0-4.3,0-8.3,0-12.3a1.47,1.47,0,0,1,.81-1.08c4.75-1.67,7.22-5.52,9.08-9.92,2.22-5.25,2.81-10.86,3.46-16.47.81-7,2.9-13.62,7.13-19.35a30.5,30.5,0,0,1,12.34-9.76,2.88,2.88,0,0,0,1.6-1.73c2-14.39,6.91-27.88,12.15-41.27q5.61-14.35,11.21-28.72c.28-.71.43-1.47.69-2.19,2.71-7.23,2-14.17-1-21.22-2.78-6.35-4.91-13-7.33-19.52-.08-.22-.22-.42-.47-.91-.92,2-1.72,3.76-2.54,5.52-7.79,16.62-17.77,31.61-31.16,44.08-6.66,6.2-14.27,11-21.68,16.16-8.59,6-17.16,12-25.6,18.16a69,69,0,0,0-8.27,7.51c-7.35,7.49-9.7,16.62-8.1,27,2,12.81,6.29,24.89,10.9,36.88,3.25,8.45,6.81,16.79,10.08,25.24,2.57,6.64,4.33,13.49,4.1,20.75-.24,7.86-2.7,15.06-6,22-.78,1.67-1.6,3.33-2.51,4.93-2,3.46-5.64,4.57-8.85,2.75-3-1.71-4-5.61-2.36-9,1.46-3,3-6.07,4.3-9.17a30.69,30.69,0,0,0,.77-23.39c-3.17-8.62-6.72-17.1-10-25.67-1.89-4.88-3.64-9.81-5.46-14.72-.26-.71-.51-1.42-.81-2.27-2.46,2.25-4.73,4.44-7.12,6.48-12.43,10.58-26.87,16.93-42.39,21a6.31,6.31,0,0,1-7.88-4.65,6.5,6.5,0,0,1,4.86-8,104.51,104.51,0,0,0,27.28-11.14,71.4,71.4,0,0,0,19.59-17.13,3.64,3.64,0,0,0,.73-3.49,73.39,73.39,0,0,1-2.31-20c.39-11.55,5.39-20.85,13.31-28.75s17.21-14.24,26.4-20.57c7.37-5.07,14.94-9.87,22.08-15.26,12.81-9.66,22.46-22.2,30-36.41,3.26-6.11,6.1-12.45,9.12-18.69l-.48-.4c-.44.27-.88.51-1.3.8-14.19,10.09-29.33,18.11-46.18,22.49a94.69,94.69,0,0,1-32.76,2.65c-9.67-.9-16.16,2.72-19.76,12a197.31,197.31,0,0,0-6.65,22c-3.15,12.21-6.16,24.43-11.35,36-9.56,21.25-25,36.36-45.74,45.85-3.8,1.73-7.56.46-9.06-3s0-7.22,3.85-8.92c22.26-10,36.53-27.28,43.74-50.77,2.89-9.39,5.12-19,7.63-28.51a6,6,0,0,0,0-1.11c-1.58,1.1-3,2-4.32,3-9.33,6.73-19.33,12.1-30.44,15-18.67,4.87-36.37,2.9-52.59-8.41a37.42,37.42,0,0,1-4.69-3.84,6.69,6.69,0,0,1-.4-9,6.24,6.24,0,0,1,8.81-.73c13.81,11.77,29.48,13.61,46.3,9.11,9.76-2.61,18.46-7.5,26.59-13.48A63.67,63.67,0,0,1,125.06,153a4.47,4.47,0,0,0,2.2-2.05c6.37-12.89,16.69-18.85,30.61-17.6,21.79,2,41.4-4.46,60-15.37a168.65,168.65,0,0,0,23.3-16.79,4.7,4.7,0,0,0,2-4.69,6.29,6.29,0,0,1,3.49-6.65,6.22,6.22,0,0,1,9,5.18,11.85,11.85,0,0,0,2.85,6.89c15.57,19.73,35.71,30.4,60.49,31,8.13.19,16.32-1.31,24.45-2.26,9.3-1.09,18.58-1.85,27.82.23,7.74,1.74,15,4.93,22.14,8.34,12,5.74,24,11.62,36.06,17.2a72.73,72.73,0,0,0,22.42,6.73,22.5,22.5,0,0,0,12.64-1.84,6.24,6.24,0,0,1,8.36,2.93A6.59,6.59,0,0,1,470,173.08Z" transform="translate(-3.5 -8)"/></svg>