<svg id="Capa_1" data-name="Capa 1" xmlns="http://www.w3.org/2000/svg" viewBox="0 0 486.92 484"><defs><style>.cls-1{fill:#fff;}</style></defs><path class="cls-1" d="M244,.5C109.5.5.5,108.85.5,242.5s109,242,243.46,242,243.46-108.35,243.46-242S378.42.5,244,.5Zm0,63.31c67.75,0,126,43.3,152,105.46H92C118,107.11,176.21,63.81,244,63.81Zm0,356.38c-67.75,0-126-43.3-152-105.46H396C370,376.89,311.71,420.19,244,420.19ZM403.05,294.73H84.87a191.32,191.32,0,0,1,0-105.46H403.05A191.32,191.32,0,0,1,403.05,294.73Z" transform="translate(-0.5 -0.5)"/></svg>